<?xml version="1.0" standalone="yes"?>
<!DOCTYPE svg PUBLIC "-//W3C//DTD SVG 1.1//EN"
 "http://www.w3.org/Graphics/SVG/1.1/DTD/svg11.dtd">
<svg xmlns="http://www.w3.org/2000/svg" version="1.1"
  width="100%" height="100%" viewBox="0 0 1024 768"
  style="fill: none; font-family: Helvetica;
 font: Helvetica;
">

<!-- Creator: NGspice -->

<rect x="0" y="0" width="1024" height="768" fill="black" stroke="none"/>
<text stroke="none" fill="white" font-size="16" x="358" y="752">
temp-sweep
</text>
<text stroke="none" fill="white" font-size="16" x="10" y="16">
dc1: cicsimgen tran
</text>
<path stroke="white" stroke-dasharray="1,2" d="M60 704l0 -637"/>
<text stroke="none" fill="white" font-size="16" x="30" y="728">
-100.0
</text>
<path stroke="white" stroke-dasharray="1,2" d="M150 704l0 -637"/>
<text stroke="none" fill="white" font-size="16" x="125" y="728">
-80.0
</text>
<path stroke="white" stroke-dasharray="1,2" d="M240 704l0 -637"/>
<text stroke="none" fill="white" font-size="16" x="215" y="728">
-60.0
</text>
<path stroke="white" stroke-dasharray="1,2" d="M330 704l0 -637"/>
<text stroke="none" fill="white" font-size="16" x="305" y="728">
-40.0
</text>
<path stroke="white" stroke-dasharray="1,2" d="M420 704l0 -637"/>
<text stroke="none" fill="white" font-size="16" x="395" y="728">
-20.0
</text>
<path stroke="white" d="M510 704l0 -637"/>
<text stroke="none" fill="white" font-size="16" x="495" y="728">
0.0
</text>
<path stroke="white" stroke-dasharray="1,2" d="M600 704l0 -637"/>
<text stroke="none" fill="white" font-size="16" x="580" y="728">
20.0
</text>
<path stroke="white" stroke-dasharray="1,2" d="M690 704l0 -637"/>
<text stroke="none" fill="white" font-size="16" x="670" y="728">
40.0
</text>
<path stroke="white" stroke-dasharray="1,2" d="M780 704l0 -637"/>
<text stroke="none" fill="white" font-size="16" x="760" y="728">
60.0
</text>
<path stroke="white" stroke-dasharray="1,2" d="M870 704l0 -637"/>
<text stroke="none" fill="white" font-size="16" x="850" y="728">
80.0
</text>
<path stroke="white" stroke-dasharray="1,2" d="M960 704l0 -637"/>
<text stroke="none" fill="white" font-size="16" x="935" y="728">
100.0
</text>
<text stroke="none" fill="white" font-size="16" x="614" y="752">
Celsius
</text>
<path stroke="white" stroke-dasharray="1,2" d="M60 704l900 0"/>
<text stroke="none" fill="white" font-size="16" x="18" y="712">
1.05
</text>
<path stroke="white" stroke-dasharray="1,2" d="M60 613l900 0"/>
<text stroke="none" fill="white" font-size="16" x="18" y="621">
1.10
</text>
<path stroke="white" stroke-dasharray="1,2" d="M60 522l900 0"/>
<text stroke="none" fill="white" font-size="16" x="18" y="530">
1.15
</text>
<path stroke="white" stroke-dasharray="1,2" d="M60 431l900 0"/>
<text stroke="none" fill="white" font-size="16" x="18" y="439">
1.20
</text>
<path stroke="white" stroke-dasharray="1,2" d="M60 340l900 0"/>
<text stroke="none" fill="white" font-size="16" x="18" y="348">
1.25
</text>
<path stroke="white" stroke-dasharray="1,2" d="M60 249l900 0"/>
<text stroke="none" fill="white" font-size="16" x="18" y="257">
1.30
</text>
<path stroke="white" stroke-dasharray="1,2" d="M60 158l900 0"/>
<text stroke="none" fill="white" font-size="16" x="18" y="166">
1.35
</text>
<path stroke="white" stroke-dasharray="1,2" d="M60 67l900 0"/>
<text stroke="none" fill="white" font-size="16" x="18" y="75">
1.40
</text>
<text stroke="none" fill="white" font-size="16" x="10" y="32">
V
</text>
<path stroke="red" d="M450 23l45 0"/>
<text stroke="none" fill="white" font-size="16" x="505" y="32">
v(v_sense)
</text>
<path stroke="red" d="M60 650l2 -2 1 0 0 -1 1 0 0 -1 1 0 0 -1 1 0 1 -1 1 0 0 -1 1 0 0 -1 1 0 0 -1 1 0 1 -1 1 0 0 -1 1 0 0 -1 1 0 1 -1 1 0 0 -1 1 0 0 -1 1 0 0 -1 1 0 1 -1 1 0 0 -1 1 0 0 -1 1 0 1 -1 1 0 0 -1 1 0 0 -1 1 0 1 -1 1 0 0 -1 1 0 0 -1"/>
<path stroke="red" d="M91 625l1 0 1 -1 1 0 0 -1 1 0 2 -2 1 0 0 -1 1 0 2 -2 1 0 0 -1 1 0 1 -1 1 0 0 -1 1 0 1 -1 1 0 0 -1 1 0 0 -1 1 0 1 -1 1 0 0 -1 2 0 0 -1 1 0 0 -1 1 0 1 -1 1 0 0 -1 1 0 1 -1 1 0 0 -1 1 0 2 -2 1 0 1 -1 1 0 0 -1 1 0 0 -1 2 0 0 -1"/>
<path stroke="red" d="M130 598l1 0 2 -2 1 0 1 -1 1 0 0 -1 1 0 0 -1 2 0 0 -1 1 0 2 -2 1 0 1 -1 1 0 0 -1 1 0 1 -1 1 0 0 -1 1 0 1 -1 1 0 0 -1 1 0 1 -1 1 0 0 -1 1 0 1 -1 1 0 1 -1 1 0 0 -1 1 0 1 -1 1 0 0 -1 1 0 1 -1 1 0 0 -1 2 0 0 -1 1 0 0 -1 2 0"/>
<path stroke="red" d="M170 573l0 -1 1 0 1 -1 1 0 0 -1 1 0 1 -1 1 0 2 -2 1 0 1 -1 1 0 0 -1 1 0 1 -1 1 0 1 -1 1 0 0 -1 1 0 1 -1 1 0 2 -2 1 0 1 -1 1 0 0 -1 1 0 1 -1 1 0 1 -1 1 0 0 -1 1 0 1 -1 1 0 1 -1 1 0 0 -1 1 0 1 -1 1 0 2 -2 1 0 1 -1 1 0 2 -2"/>
<path stroke="red" d="M214 545l1 0 1 -1 1 0 0 -1 2 0 0 -1 1 0 1 -1 1 0 0 -1 2 0 0 -1 1 0 1 -1 1 0 0 -1 2 0 0 -1 2 0 0 -1 1 0 0 -1 2 0 0 -1 1 0 1 -1 1 0 1 -1 1 0 0 -1 1 0 1 -1 1 0 1 -1 1 0 0 -1 2 0 0 -1 1 0 1 -1 1 0 0 -1 2 0 0 -1 2 0 0 -1 1 0"/>
<path stroke="red" d="M254 522l1 -1 1 0 0 -1 2 0 0 -1 1 0 1 -1 1 0 1 -1 1 0 0 -1 1 0 1 -1 1 0 1 -1 1 0 0 -1 2 0 0 -1 1 0 1 -1 1 0 1 -1 1 0 2 -2 1 0 1 -1 1 0 0 -1 2 0 0 -1 2 0 0 -1 1 0 1 -1 1 0 1 -1 1 0 0 -1 1 0 1 -1 1 0 1 -1 1 0 0 -1 2 0 0 -1"/>
<path stroke="red" d="M296 497l2 0 0 -1 1 0 1 -1 1 0 1 -1 1 0 0 -1 2 0 0 -1 2 0 0 -1 1 0 0 -1 2 0 0 -1 2 0 0 -1 1 0 1 -1 1 0 1 -1 1 0 0 -1 2 0 0 -1 2 0 0 -1 1 0 1 -1 1 0 1 -1 1 0 0 -1 2 0 0 -1 2 0 0 -1 1 0 1 -1 1 0 1 -1 1 0 0 -1 2 0 0 -1 2 0"/>
<path stroke="red" d="M339 474l0 -1 1 0 1 -1 1 0 1 -1 1 0 0 -1 1 0 1 -1 1 0 1 -1 1 0 0 -1 2 0 0 -1 1 0 1 -1 1 0 1 -1 1 0 1 -1 1 0 0 -1 2 0 0 -1 1 0 1 -1 1 0 1 -1 1 0 1 -1 1 0 0 -1 2 0 0 -1 1 0 1 -1 2 0 0 -1 2 0 0 -1 1 0 1 -1 1 0 1 -1 1 0 0 -1"/>
<path stroke="red" d="M380 450l2 0 0 -1 2 0 0 -1 1 0 1 -1 1 0 1 -1 1 0 0 -1 2 0 0 -1 2 0 0 -1 1 0 1 -1 1 0 1 -1 1 0 0 -1 2 0 0 -1 2 0 0 -1 1 0 1 -1 1 0 1 -1 1 0 0 -1 2 0 0 -1 2 0 0 -1 1 0 1 -1 2 0 0 -1 1 0 1 -1 1 0 1 -1 1 0 0 -1 2 0 0 -1 2 0"/>
<path stroke="red" d="M424 427l0 -1 1 0 1 -1 1 0 1 -1 1 0 0 -1 2 0 0 -1 2 0 0 -1 1 0 1 -1 1 0 1 -1 1 0 1 -1 1 0 1 -1 1 0 0 -1 2 0 0 -1 2 0 0 -1 1 0 1 -1 1 0 1 -1 1 0 0 -1 2 0 0 -1 2 0 0 -1 2 0 0 -1 2 0 0 -1 1 0 1 -1 1 0 1 -1 1 0 1 -1 1 0 0 -1"/>
<path stroke="red" d="M466 403l2 0 0 -1 1 0 1 -1 1 0 1 -1 2 0 0 -1 1 0 1 -1 1 0 1 -1 1 0 0 -1 2 0 0 -1 2 0 0 -1 1 0 1 -1 1 0 1 -1 1 0 1 -1 1 0 1 -1 1 0 0 -1 2 0 0 -1 2 0 0 -1 1 0 1 -1 1 0 1 -1 1 0 1 -1 1 0 1 -1 1 0 0 -1 2 0 0 -1 2 0 0 -1 1 0"/>
<path stroke="red" d="M510 380l1 -1 2 0 0 -1 1 0 1 -1 1 0 1 -1 1 0 1 -1 1 0 0 -1 2 0 0 -1 1 0 1 -1 2 0 0 -1 2 0 0 -1 1 0 1 -1 1 0 1 -1 1 0 0 -1 2 0 0 -1 2 0 0 -1 2 0 0 -1 2 0 0 -1 1 0 1 -1 1 0 1 -1 1 0 0 -1 2 0 1 -1 1 0 1 -1 1 0 0 -1 2 0 0 -1"/>
<path stroke="red" d="M554 356l1 0 1 -1 2 0 0 -1 2 0 0 -1 1 0 1 -1 1 0 1 -1 1 0 0 -1 2 0 0 -1 2 0 0 -1 2 0 0 -1 2 0 0 -1 1 0 1 -1 1 0 1 -1 1 0 1 -1 1 0 1 -1 1 0 0 -1 2 0 0 -1 2 0 0 -1 2 0 0 -1 2 0 0 -1 1 0 1 -1 1 0 1 -1 1 0 1 -1 1 0 1 -1 1 0"/>
<path stroke="red" d="M599 333l1 -1 1 0 0 -1 2 0 0 -1 2 0 0 -1 2 0 0 -1 2 0 0 -1 1 0 1 -1 1 0 1 -1 1 0 1 -1 1 0 1 -1 1 0 0 -1 2 0 0 -1 2 0 0 -1 2 0 0 -1 2 0 0 -1 1 0 1 -1 1 0 1 -1 2 0 0 -1 1 0 1 -1 1 0 1 -1 1 0 0 -1 2 0 0 -1 2 0 0 -1 2 0 0 -1"/>
<path stroke="red" d="M643 309l2 0 0 -1 1 0 1 -1 2 0 0 -1 1 0 1 -1 1 0 1 -1 1 0 0 -1 2 0 1 -1 1 0 1 -1 1 0 0 -1 2 0 0 -1 1 0 1 -1 2 0 0 -1 2 0 0 -1 1 0 1 -1 1 0 1 -1 1 0 1 -1 1 0 1 -1 1 0 0 -1 2 0 0 -1 2 0 0 -1 2 0 0 -1 2 0 0 -1 1 0 1 -1 2 0"/>
<path stroke="red" d="M689 286l0 -1 1 0 1 -1 1 0 1 -1 1 0 1 -1 1 0 1 -1 1 0 1 -1 1 0 0 -1 2 0 0 -1 2 0 0 -1 2 0 0 -1 2 0 0 -1 1 0 1 -1 2 0 0 -1 1 0 1 -1 1 0 1 -1 1 0 1 -1 1 0 1 -1 1 0 1 -1 1 0 0 -1 2 0 1 -1 1 0 0 -1 2 0 0 -1 2 0 0 -1 2 0 0 -1"/>
<path stroke="red" d="M733 262l2 0 0 -1 1 0 1 -1 2 0 0 -1 1 0 1 -1 1 0 1 -1 1 0 0 -1 2 0 1 -1 1 0 1 -1 1 0 0 -1 2 0 1 -1 1 0 0 -1 2 0 0 -1 2 0 0 -1 2 0 0 -1 2 0 0 -1 1 0 1 -1 2 0 0 -1 1 0 1 -1 1 0 1 -1 1 0 1 -1 1 0 1 -1 1 0 1 -1 1 0 1 -1 1 0"/>
<path stroke="red" d="M779 239l1 -1 1 0 0 -1 2 0 0 -1 2 0 0 -1 2 0 0 -1 2 0 0 -1 2 0 0 -1 2 0 0 -1 1 0 1 -1 2 0 0 -1 1 0 1 -1 2 0 0 -1 2 0 0 -1 1 0 1 -1 2 0 0 -1 1 0 1 -1 1 0 1 -1 1 0 1 -1 1 0 1 -1 1 0 0 -1 2 0 1 -1 1 0 1 -1 1 0 1 -1 1 0 1 -1"/>
<path stroke="red" d="M825 215l1 0 0 -1 2 0 1 -1 1 0 0 -1 2 0 1 -1 1 0 0 -1 2 0 1 -1 1 0 1 -1 1 0 0 -1 2 0 1 -1 1 0 0 -1 2 0 1 -1 1 0 0 -1 2 0 1 -1 1 0 0 -1 2 0 1 -1 1 0 1 -1 1 0 1 -1 2 0 0 -1 1 0 1 -1 2 0 0 -1 1 0 1 -1 2 0 0 -1 1 0 1 -1 2 0"/>
<path stroke="red" d="M873 192l0 -1 2 0 0 -1 2 0 0 -1 2 0 0 -1 2 0 1 -1 1 0 1 -1 1 0 1 -1 2 0 0 -1 2 0 0 -1 2 0 1 -1 1 0 0 -1 2 0 1 -1 1 0 1 -1 2 0 0 -1 2 0 0 -1 2 0 1 -1 1 0 1 -1 2 0 0 -1 2 0 0 -1 2 0 1 -1 1 0 1 -1 2 0 1 -1 1 0 1 -1 2 0 0 -1"/>
<path stroke="red" d="M924 168l2 0 1 -1 2 0 0 -1 2 0 1 -1 1 0 1 -1 2 0 1 -1 2 0 0 -1 3 0 0 -1 2 0 1 -1 2 0 0 -1 3 0 0 -1 2 0 1 -1 3 0 0 -1 3 0 0 -1 1 0"/>
</svg>
